HIERARCHY
ROOT Hips
{
    OFFSET 0.000000 0.000000 0.000000
    CHANNELS 6 Xposition Yposition Zposition Zrotation Xrotation Yrotation
    JOINT Spine
    {
        OFFSET -0.000000 7.246840 0.000000
        CHANNELS 3 Zrotation Xrotation Yrotation
        JOINT Spine1
        {
            OFFSET -0.000000 20.289354 0.000000
            CHANNELS 3 Zrotation Xrotation Yrotation
            JOINT Neck
            {
                OFFSET -0.000000 20.206032 1.836912
                CHANNELS 3 Zrotation Xrotation Yrotation
                JOINT Head
                {
                    OFFSET -0.000000 12.372654 -1.767522
                    CHANNELS 3 Zrotation Xrotation Yrotation
                    End Site
                    {
                        OFFSET -0.000000 22.094025 0.000000
                    }
                }
            }
            JOINT LeftShoulder
            {
                OFFSET 3.465871 17.201674 -0.568930
                CHANNELS 3 Zrotation Xrotation Yrotation
                JOINT LeftArm
                {
                    OFFSET 14.070313 0.000000 0.000000
                    CHANNELS 3 Zrotation Xrotation Yrotation
                    JOINT LeftForeArm
                    {
                        OFFSET 26.549477 0.000000 0.000000
                        CHANNELS 3 Zrotation Xrotation Yrotation
                        JOINT LeftHand
                        {
                            OFFSET 18.880413 0.000000 0.000000
                            CHANNELS 3 Zrotation Xrotation Yrotation
                            End Site
                            {
                                OFFSET 13.256415 0.000000 0.000000
                            }
                        }
                    }
                }
            }
            JOINT RightShoulder
            {
                OFFSET -3.526370 17.201674 -0.568930
                CHANNELS 3 Zrotation Xrotation Yrotation
                JOINT RightArm
                {
                    OFFSET -14.070313 0.000000 0.000000
                    CHANNELS 3 Zrotation Xrotation Yrotation
                    JOINT RightForeArm
                    {
                        OFFSET -26.549477 0.000000 0.000000
                        CHANNELS 3 Zrotation Xrotation Yrotation
                        JOINT RightHand
                        {
                            OFFSET -18.880413 0.000000 0.000000
                            CHANNELS 3 Zrotation Xrotation Yrotation
                            End Site
                            {
                                OFFSET -13.256415 0.000000 0.000000
                            }
                        }
                    }
                }
            }
        }
    }
    JOINT LeftUpLeg
    {
        OFFSET 8.837609 0.000000 0.000000
        CHANNELS 3 Zrotation Xrotation Yrotation
        JOINT LeftLeg
        {
            OFFSET -0.000000 -41.345005 0.000000
            CHANNELS 3 Zrotation Xrotation Yrotation
            JOINT LeftFoot
            {
                OFFSET -0.000000 -35.500874 0.000000
                CHANNELS 3 Zrotation Xrotation Yrotation
                JOINT LeftToeBase
                {
                    OFFSET -0.000000 -5.744446 13.256415
                    CHANNELS 3 Zrotation Xrotation Yrotation
                    End Site
                    {
                        OFFSET -0.000000 0.000000 3.535044
                    }
                }
            }
        }
    }
    JOINT RightUpLeg
    {
        OFFSET -8.837609 0.000000 0.000000
        CHANNELS 3 Zrotation Xrotation Yrotation
        JOINT RightLeg
        {
            OFFSET -0.000000 -41.345005 0.000000
            CHANNELS 3 Zrotation Xrotation Yrotation
            JOINT RightFoot
            {
                OFFSET -0.000000 -35.500874 0.000000
                CHANNELS 3 Zrotation Xrotation Yrotation
                JOINT RightToeBase
                {
                    OFFSET -0.000000 -5.744446 13.256415
                    CHANNELS 3 Zrotation Xrotation Yrotation
                    End Site
                    {
                        OFFSET -0.000000 0.000000 3.535044
                    }
                }
            }
        }
    }
}
MOTION
Frames:    10
Frame Time:    0.010000
7.318297    82.187714    -61.507996    3.209846    4.471439    -1.189376    -4.355014    -14.089247    -0.377411    0.409294    1.697916    0.155223    1.487342    31.838524    -2.878365    3.687700    -12.685962    -1.842523    20.712757    1.984524    6.250347    -30.466402    10.176720    -8.823028    7.215089    -11.326690    -9.280959    -26.169149    -11.091681    1.492197    -16.735170    1.932805    10.602888    15.860051    4.779690    9.086896    -3.844135    -4.750837    1.292263    8.320279    -3.826259    12.105584    -4.628299    4.886852    2.052988    -2.085041    -9.265284    -3.039341    6.197864    1.233388    -3.308623    -0.062108    -1.899252    0.087959    -7.739718    3.796056    2.767987    8.136779    -10.750354    4.024326    -3.439543    0.262268    -9.560019    0.112391    -0.243968    -0.202085    
7.318603    82.188850    -61.505085    3.208203    4.479915    -1.185532    -4.353250    -14.089707    -0.380587    0.408542    1.693341    0.151980    1.493948    31.845375    -2.871230    3.669996    -12.703041    -1.837885    20.702852    2.017962    6.244275    -30.456305    10.135818    -8.823131    7.212945    -11.327195    -9.275584    -26.146383    -11.090677    1.484725    -16.737316    1.933585    10.611503    15.830259    4.877240    9.099217    -3.842374    -4.765352    1.272489    8.324365    -3.843538    12.071617    -4.626519    4.880194    2.055737    -2.082266    -9.270763    -3.071523    6.185014    1.249034    -3.299877    -0.063351    -1.932881    0.089739    -7.738333    3.789755    2.755373    8.145873    -10.747893    4.036443    -3.456258    0.258020    -9.576542    0.113500    -0.239638    -0.204069    
7.318731    82.190147    -61.503422    3.210858    4.488519    -1.179678    -4.376304    -14.091225    -0.385690    0.442827    1.693213    0.149044    1.467895    31.831375    -2.854997    3.672089    -12.683306    -1.825329    20.686901    2.009755    6.235395    -30.458887    10.144626    -8.810463    7.218356    -11.359708    -9.269083    -26.109100    -11.122225    1.482661    -16.752157    1.924924    10.616839    15.805206    4.950696    9.097863    -3.851553    -4.787965    1.257057    8.362735    -3.863218    12.062177    -4.627326    4.874005    2.048175    -2.091548    -9.275037    -3.039297    6.179406    1.270468    -3.311978    -0.046619    -1.959301    0.066048    -7.740300    3.786265    2.770521    8.144501    -10.757283    3.997179    -3.461060    0.262400    -9.551148    0.112634    -0.231180    -0.202493    
7.319916    82.192001    -61.501209    3.208455    4.497693    -1.170727    -4.363145    -14.089314    -0.391404    0.418287    1.684314    0.142184    1.509770    31.845774    -2.871165    3.632911    -12.704599    -1.844612    20.698675    2.026640    6.237425    -30.449568    10.133450    -8.807901    7.210305    -11.354020    -9.263563    -26.117849    -11.116415    1.477347    -16.742954    1.925967    10.634966    15.772616    5.035484    9.087365    -3.851243    -4.878981    1.283438    8.521466    -3.942872    11.979153    -4.619208    4.864812    2.043259    -2.116831    -9.263321    -2.978959    6.225379    1.255768    -3.352191    -0.043512    -1.920179    0.061631    -7.738109    3.779016    2.744204    8.145973    -10.746059    4.019050    -3.451095    0.252982    -9.571666    0.095710    -0.217713    -0.172042    
7.319960    82.193092    -61.499996    3.207318    4.509183    -1.167507    -4.368791    -14.089569    -0.393105    0.431629    1.679701    0.140627    1.519286    31.854435    -2.871248    3.605376    -12.719488    -1.849516    20.681883    2.025152    6.232825    -30.427996    10.131259    -8.803468    7.200223    -11.329922    -9.257810    -26.141796    -11.095855    1.486376    -16.755960    1.931293    10.634771    15.761683    4.969741    9.088258    -3.837159    -4.889020    1.302838    8.570487    -3.948543    11.962388    -4.619020    4.855930    2.056029    -2.101892    -9.278423    -3.056270    6.178007    1.284208    -3.321630    -0.049273    -1.948255    0.069803    -7.735031    3.769804    2.757900    8.137727    -10.751974    4.000658    -3.453789    0.264589    -9.555842    0.121485    -0.265913    -0.218489    
7.322917    82.194893    -61.498035    3.210799    4.516582    -1.164007    -4.367920    -14.086926    -0.394568    0.428074    1.673516    0.139120    1.476113    31.826677    -2.847521    3.659650    -12.666071    -1.819966    20.674257    2.036481    6.231871    -30.406517    10.148725    -8.806455    7.203666    -11.330461    -9.256059    -26.200031    -11.101237    1.504888    -16.763035    1.944471    10.638657    15.748613    4.941284    9.086397    -3.840176    -4.916573    1.315024    8.641273    -3.966823    11.981270    -4.626313    4.849602    2.066302    -2.103022    -9.271283    -3.023482    6.199443    1.285607    -3.361721    -0.047001    -1.939297    0.066580    -7.743702    3.762102    2.759500    8.143235    -10.746862    3.983200    -3.451898    0.254089    -9.556075    0.114615    -0.247593    -0.206091    
7.320936    82.195213    -61.495823    3.210514    4.520068    -1.149752    -4.371137    -14.076471    -0.399702    0.420290    1.665279    0.133979    1.501245    31.842646    -2.857245    3.650027    -12.692295    -1.827581    20.680182    2.039671    6.229189    -30.384422    10.159071    -8.808694    7.190585    -11.321028    -9.253889    -26.234638    -11.095381    1.513406    -16.762178    1.937346    10.630872    15.758192    4.867138    9.089256    -3.847019    -4.892837    1.336224    8.672074    -3.940370    11.963709    -4.624965    4.842989    2.100576    -2.097939    -9.269754    -3.083729    6.170687    1.290300    -3.378861    -0.072003    -1.945065    0.102001    -7.735077    3.765399    2.739857    8.130796    -10.750161    4.003788    -3.433149    0.250899    -9.572572    0.112732    -0.239690    -0.202688    
7.324071    82.196884    -61.494583    3.210508    4.526082    -1.148210    -4.362966    -14.067213    -0.399739    0.411028    1.653324    0.133239    1.528154    31.866186    -2.862045    3.612978    -12.727483    -1.836225    20.678585    2.058794    6.229829    -30.371557    10.155549    -8.813632    7.201940    -11.325139    -9.253670    -26.288244    -11.104904    1.537556    -16.767384    1.946350    10.626858    15.757226    4.833171    9.100176    -3.874732    -4.886130    1.346457    8.720558    -3.928031    11.961811    -4.628144    4.840458    2.100933    -2.092626    -9.287221    -3.073423    6.167979    1.308992    -3.412435    -0.080930    -1.974484    0.114668    -7.741593    3.759559    2.756739    8.135488    -10.747441    3.993864    -3.442215    0.247108    -9.588776    0.093772    -0.244277    -0.168608    
7.324243    82.197906    -61.492104    3.209173    4.534591    -1.137539    -4.359410    -14.064748    -0.403496    0.402101    1.643867    0.129026    1.468113    31.851736    -2.828716    3.701197    -12.686655    -1.790230    20.681761    2.058431    6.228719    -30.361261    10.155540    -8.818574    7.207414    -11.332002    -9.238304    -26.313921    -11.116904    1.556167    -16.760435    1.950409    10.623667    15.729048    4.816281    9.111663    -3.852768    -4.880653    1.344119    8.690452    -3.926906    11.950514    -4.624434    4.833888    2.114035    -2.101980    -9.282946    -3.072943    6.164507    1.317663    -3.418600    -0.067831    -1.974531    0.096108    -7.737384    3.755116    2.748559    8.132558    -10.746253    4.000141    -3.454795    0.254260    -9.578623    0.115623    -0.239257    -0.207886    
7.330596    82.196083    -61.487137    3.223422    4.555858    -1.113407    -4.374037    -14.086147    -0.421970    0.402963    1.648293    0.112812    1.484839    31.871910    -2.841686    3.668462    -12.705272    -1.808451    20.678808    2.071195    6.232296    -30.365070    10.137484    -8.814173    7.210004    -11.358121    -9.235102    -26.280922    -11.140060    1.545260    -16.781713    1.937835    10.637251    15.763288    4.687799    9.134547    -3.884360    -4.817899    1.289407    8.690396    -3.865630    11.949508    -4.639670    4.820574    2.085809    -2.123882    -9.287238    -2.980210    6.200605    1.310059    -3.463319    -0.046107    -1.932990    0.065312    -7.760839    3.746297    2.731182    8.138802    -10.754389    4.004767    -3.457953    0.242593    -9.608234    0.101633    -0.238854    -0.182732    
